<svg width="50" height="52" viewBox="0 0 50 52" fill="none" xmlns="http://www.w3.org/2000/svg">
<g clip-path="url(#clip0_93_63)">
<path d="M43.8571 42.806C22.5887 53.0204 9.39291 44.4772 0.941936 39.2835C0.41928 38.9566 -0.469234 39.3603 0.301812 40.2539C3.11639 43.698 12.341 52 24.3817 52C36.4308 52 43.5989 45.3676 44.4957 44.2077C45.3863 43.0588 44.7544 42.4269 43.8571 42.806ZM49.8299 39.4768C49.2606 38.7263 46.3571 38.589 44.5309 38.8125C42.7047 39.036 39.9569 40.1604 40.1954 40.8377C40.3181 41.0915 40.568 40.9777 41.8245 40.8638C43.0845 40.7369 46.6137 40.2894 47.3491 41.2576C48.0844 42.2258 46.2225 46.8889 45.883 47.6393C45.5539 48.3898 46.0088 48.5835 46.6267 48.0837C47.2363 47.584 48.3395 46.2899 49.08 44.4584C49.8154 42.6175 50.264 40.0512 49.8299 39.4768Z" fill="white" fill-opacity="0.5"/>
<path fill-rule="evenodd" clip-rule="evenodd" d="M29.5595 21.9636C29.5595 24.6438 29.6268 26.8789 28.2845 29.2588C27.2009 31.1942 25.4849 32.3843 23.5676 32.3843C20.9497 32.3843 19.4278 30.3716 19.4278 27.4017C19.4278 21.538 24.6336 20.4737 29.5616 20.4737L29.5595 21.9636ZM36.4312 38.7316C35.9804 39.1379 35.3289 39.1671 34.8208 38.8961C32.5578 36.9998 32.1552 36.1194 30.9091 34.3098C27.1698 38.1608 24.5234 39.3123 19.672 39.3123C13.9389 39.3123 9.47095 35.7418 9.47095 28.5913C9.47095 23.0086 12.4723 19.2062 16.7384 17.3487C20.4395 15.7036 25.607 15.4133 29.557 14.9584V14.0706C29.557 12.4349 29.6817 10.5001 28.7326 9.08741C27.8984 7.81995 26.3067 7.29772 24.9069 7.29772C22.3086 7.29772 19.9908 8.64247 19.4216 11.4291C19.3062 12.0485 18.8555 12.6579 18.2422 12.6867L11.6268 11.9712C11.0705 11.8448 10.4573 11.3905 10.6104 10.5293C12.1365 2.43832 19.375 0 25.8559 0C29.1735 0 33.5069 0.8878 36.1243 3.42534C39.4419 6.5504 39.1257 10.7204 39.1257 15.2587V25.9791C39.1257 29.2013 40.4489 30.6134 41.695 32.3556C42.1359 32.9745 42.2321 33.7197 41.6758 34.1834C40.2859 35.3543 37.8123 37.5315 36.4493 38.7504L36.4301 38.7311" fill="white" fill-opacity="0.5"/>
<path d="M43.8571 42.806C22.5887 53.0204 9.39291 44.4772 0.941936 39.2835C0.41928 38.9566 -0.469234 39.3603 0.301812 40.2539C3.11639 43.698 12.341 52 24.3817 52C36.4308 52 43.5989 45.3676 44.4957 44.2077C45.3863 43.0588 44.7544 42.4269 43.8571 42.806ZM49.8299 39.4768C49.2606 38.7263 46.3571 38.589 44.5309 38.8125C42.7047 39.036 39.9569 40.1604 40.1954 40.8377C40.3181 41.0915 40.568 40.9777 41.8245 40.8638C43.0845 40.7369 46.6137 40.2894 47.3491 41.2576C48.0844 42.2258 46.2225 46.8889 45.883 47.6393C45.5539 48.3898 46.0088 48.5835 46.6267 48.0837C47.2363 47.584 48.3395 46.2899 49.08 44.4584C49.8154 42.6175 50.264 40.0512 49.8299 39.4768Z" fill="white" fill-opacity="0.5"/>
<path fill-rule="evenodd" clip-rule="evenodd" d="M29.5595 21.9636C29.5595 24.6438 29.6268 26.8789 28.2845 29.2588C27.2009 31.1942 25.4849 32.3843 23.5676 32.3843C20.9497 32.3843 19.4278 30.3716 19.4278 27.4017C19.4278 21.538 24.6336 20.4737 29.5616 20.4737L29.5595 21.9636ZM36.4312 38.7316C35.9804 39.1379 35.3289 39.1671 34.8208 38.8961C32.5578 36.9998 32.1552 36.1194 30.9091 34.3098C27.1698 38.1608 24.5234 39.3123 19.672 39.3123C13.9389 39.3123 9.47095 35.7418 9.47095 28.5913C9.47095 23.0086 12.4723 19.2062 16.7384 17.3487C20.4395 15.7036 25.607 15.4133 29.557 14.9584V14.0706C29.557 12.4349 29.6817 10.5001 28.7326 9.08741C27.8984 7.81995 26.3067 7.29772 24.9069 7.29772C22.3086 7.29772 19.9908 8.64247 19.4216 11.4291C19.3062 12.0485 18.8555 12.6579 18.2422 12.6867L11.6268 11.9712C11.0705 11.8448 10.4573 11.3905 10.6104 10.5293C12.1365 2.43832 19.375 0 25.8559 0C29.1735 0 33.5069 0.8878 36.1243 3.42534C39.4419 6.5504 39.1257 10.7204 39.1257 15.2587V25.9791C39.1257 29.2013 40.4489 30.6134 41.695 32.3556C42.1359 32.9745 42.2321 33.7197 41.6758 34.1834C40.2859 35.3543 37.8123 37.5315 36.4493 38.7504L36.4301 38.7311" fill="white" fill-opacity="0.5"/>
</g>
<defs>
<clipPath id="clip0_93_63">
<rect width="50" height="52" fill="white"/>
</clipPath>
</defs>
</svg>
