<svg width="119" height="100" viewBox="0 0 119 100" fill="none" xmlns="http://www.w3.org/2000/svg">
<g clip-path="url(#clip0_93_49)">
<path d="M113.581 70.3885C112.92 71.2685 111.973 71.7077 110.741 71.706C109.509 71.7043 108.558 71.2651 107.89 70.3885C107.225 69.5101 106.892 68.2606 106.893 66.6398C106.894 65.0191 107.227 63.7725 107.89 62.9C108.56 62.0267 109.51 61.5901 110.741 61.5901C111.972 61.5901 112.918 62.0267 113.581 62.9C114.242 63.7758 114.573 65.0224 114.573 66.6398C114.574 68.2573 114.244 69.5068 113.581 70.3885ZM116.956 60.5796C115.596 58.8708 113.529 58.0164 110.756 58.0164C107.982 58.0164 105.915 58.8708 104.553 60.5796C103.191 62.2885 102.509 64.3085 102.508 66.6398C102.508 69.0114 103.19 71.0407 104.553 72.7278C105.916 74.4148 107.983 75.2554 110.756 75.2495C113.532 75.2495 115.6 74.4081 116.961 72.7252C118.321 71.0424 119.002 69.0131 119.005 66.6373C119.005 64.3077 118.323 62.2876 116.961 60.5771" fill="white" fill-opacity="0.5"/>
<path d="M80.0067 68.3914C79.9779 69.8121 79.571 70.7823 78.795 71.3234C78.0469 71.8495 77.1547 72.1308 76.2408 72.1287C75.7041 72.1438 75.1787 71.9721 74.754 71.643C74.3459 71.3209 74.1437 70.7961 74.1437 70.0738C74.1437 69.2597 74.4752 68.6607 75.1483 68.2731C75.5413 68.0466 76.1906 67.8503 77.0922 67.6943L78.0553 67.5169C78.4393 67.4487 78.8173 67.3498 79.1855 67.2212C79.4725 67.1158 79.7474 66.98 80.0055 66.816L80.0067 68.3914ZM82.1515 59.1501C80.7702 58.4496 79.1909 58.0981 77.4136 58.0956C74.6761 58.0956 72.7461 58.8086 71.6234 60.2348C70.9185 61.1483 70.5205 62.3144 70.4292 63.733H74.5154C74.6159 63.1038 74.8143 62.6105 75.1182 62.2444C75.5367 61.7486 76.2533 61.5007 77.268 61.5007C78.1734 61.5007 78.8577 61.6265 79.3236 61.8782C79.7895 62.1299 80.0231 62.5904 80.0231 63.2548C80.0231 63.801 79.7192 64.1998 79.1114 64.4591C78.7724 64.6088 78.2098 64.7321 77.4199 64.8366L75.9721 65.0153C74.3283 65.2216 73.0839 65.5715 72.2337 66.0572C70.6867 66.9506 69.9127 68.3939 69.9119 70.3872C69.9119 71.924 70.3932 73.1111 71.356 73.9483C72.3141 74.7876 73.5334 75.1387 75.0064 75.2067C84.2449 75.6194 84.1406 70.328 84.226 69.227V63.1403C84.226 61.1865 83.5349 59.8564 82.1528 59.1501" fill="white" fill-opacity="0.5"/>
<path d="M61.0892 61.7234C62.144 61.7234 62.9213 62.0498 63.4211 62.7024C63.7646 63.1871 63.9845 63.7488 64.0615 64.3383H68.6199C68.3687 62.0372 67.5642 60.4298 66.2063 59.5163C64.8485 58.6027 63.1017 58.1468 60.9661 58.1484C58.4547 58.1484 56.4873 58.9194 55.0642 60.4613C53.641 62.0032 52.9269 64.1617 52.9219 66.9368C52.9219 69.3939 53.5682 71.3943 54.8607 72.9379C56.1533 74.4814 58.1675 75.252 60.9033 75.2494C63.6425 75.2494 65.7103 74.3241 67.1067 72.4735C67.9824 71.3276 68.4717 70.1112 68.5746 68.8243H64.0301C63.9372 69.6749 63.6722 70.367 63.2302 70.9006C62.7882 71.4341 62.0561 71.7022 61.0126 71.7022C59.5425 71.7022 58.5409 71.031 58.0076 69.6888C57.7175 68.9703 57.5681 68.0177 57.5681 66.8348C57.5681 65.5929 57.7175 64.5975 58.0076 63.8437C58.5601 62.4319 59.5873 61.7251 61.0892 61.7234Z" fill="white" fill-opacity="0.5"/>
<path d="M51.6987 58.1484C42.3384 58.1484 42.8922 66.4536 42.8922 66.4536V74.8845H47.1391V66.9758C47.1391 65.6797 47.3015 64.72 47.6263 64.0967C48.2102 62.9893 49.3479 62.4344 51.0482 62.4344C51.1738 62.4344 51.3433 62.4419 51.5505 62.4507C51.7577 62.4596 51.9925 62.4797 52.2625 62.5099V58.1799C52.0741 58.1673 51.9511 58.1623 51.9008 58.1572C51.8506 58.1522 51.7753 58.1484 51.6987 58.1484Z" fill="white" fill-opacity="0.5"/>
<path d="M30.3888 62.5565C30.9857 61.9415 31.8249 61.6337 32.9066 61.6328C33.9028 61.6328 34.7374 61.9231 35.4105 62.5036C36.0836 63.0841 36.4578 63.9356 36.5331 65.0581H29.2586C29.4106 64.0048 29.7873 63.1705 30.3888 62.5565ZM36.0974 70.4841C35.9345 70.7253 35.7388 70.9426 35.516 71.1296C34.9145 71.6229 34.1008 71.7739 33.1414 71.7739C32.2335 71.7739 31.524 71.6355 30.8811 71.2303C29.8225 70.5772 29.226 69.4686 29.1607 67.8503H40.9157C40.9295 66.4548 40.8868 65.3852 40.7738 64.6428C40.6042 63.4447 40.1649 62.301 39.4891 61.2981C38.8038 60.2534 37.8373 59.4245 36.7014 58.9072C35.5044 58.3894 34.2114 58.1321 32.9078 58.1522C30.5403 58.1522 28.6149 58.8993 27.1314 60.3933C25.648 61.8874 24.9062 64.035 24.9062 66.8361C24.9062 69.8268 25.7275 71.9849 27.37 73.3103C28.9713 74.6234 30.9834 75.3283 33.0522 75.301C35.6524 75.301 37.6767 74.5146 39.125 72.9416C39.9035 72.1124 40.3908 71.2957 40.5967 70.4866L36.0974 70.4841Z" fill="white" fill-opacity="0.5"/>
<path d="M23.2048 74.8871H19.3245V65.0958C19.3245 64.2024 19.0294 62.0758 16.4715 62.0758C14.7637 62.0758 13.5306 63.3064 13.5306 65.0958V74.8871H9.64407V65.0958C9.64407 64.2024 9.38162 62.0758 6.82242 62.0758C5.08574 62.0758 3.88149 63.3064 3.88149 65.0958V74.8871H0V65.1902C0 61.1471 2.67598 58.0918 6.82242 58.0918C8.88183 58.0918 10.5582 58.9588 11.6482 60.3455C12.2341 59.6338 12.9711 59.0621 13.8056 58.6722C14.64 58.2823 15.5508 58.084 16.4715 58.0918C20.7059 58.0918 23.2048 61.0238 23.2048 65.1902V74.8871Z" fill="white" fill-opacity="0.5"/>
<path d="M96.1505 70.4237C95.5302 71.3146 94.6185 71.7588 93.4281 71.7588C92.2376 71.7588 91.3423 71.3108 90.7558 70.4161C90.1694 69.5214 89.8768 68.214 89.8768 66.7229C89.8768 65.3387 90.1648 64.1793 90.7408 63.2448C91.3167 62.3102 92.2226 61.8425 93.4582 61.8417C94.2394 61.8318 94.9978 62.1059 95.593 62.6131C96.5888 63.465 97.0873 64.9901 97.0873 66.967C97.0873 68.3805 96.7763 69.5328 96.1543 70.4237M101.25 53.0345C101.25 53.0345 96.9705 52.5765 96.9705 56.0206V60.5821C96.5163 59.8381 95.8801 59.2226 95.1221 58.794C94.3241 58.3548 93.4254 58.1323 92.5151 58.1484C90.3946 58.1484 88.6998 58.9391 87.4307 60.5204C86.1636 62.106 85.532 64.3861 85.532 67.1431C85.532 69.5374 86.1753 71.4987 87.4621 73.0272C88.7517 74.5536 91.277 75.2243 93.5185 75.2243C101.339 75.2243 101.249 68.5034 101.249 68.5034L101.25 53.0345Z" fill="white" fill-opacity="0.5"/>
<path d="M76.2384 87.3737C76.8302 86.7638 77.6624 86.4589 78.7348 86.4589C79.7193 86.4589 80.5455 86.7462 81.2136 87.3209C81.8817 87.8955 82.2534 88.7373 82.3287 89.8464H75.1233C75.2756 88.8045 75.6473 87.9786 76.2384 87.3687M81.8967 95.2233C81.7358 95.4627 81.5412 95.6775 81.3191 95.8613C80.7239 96.352 79.8863 96.5345 78.9332 96.5345C78.0341 96.5345 77.3296 96.3973 76.6929 95.9934C75.6406 95.3475 75.0831 94.2204 75.0203 92.6122H86.671C86.6874 91.228 86.6422 90.1698 86.5291 89.4336C86.3621 88.2462 85.9271 87.1127 85.2571 86.1191C84.579 85.0822 83.621 84.2596 82.4945 83.7471C81.3095 83.2318 80.0289 82.9744 78.7373 82.9921C76.3891 82.9921 74.4866 83.7333 73.0136 85.2131C71.5407 86.6929 70.8098 88.8397 70.8098 91.6081C70.8098 94.5711 71.624 96.7103 73.2522 98.0257C74.8394 99.3277 76.8344 100.027 78.8855 99.9988C81.4606 99.9988 83.4651 99.2194 84.8992 97.6607C85.6715 96.8403 86.1549 96.0249 86.3621 95.2271L81.8967 95.2233Z" fill="white" fill-opacity="0.5"/>
<path d="M69.9985 83.0186C69.9433 83.0186 69.8729 83.0186 69.7988 83.0186C60.4361 83.0186 60.9911 91.3237 60.9911 91.3237V99.6288H65.2405V91.8383C65.2405 90.5422 65.4029 89.5825 65.7277 88.9592C66.3079 87.8519 67.4477 87.2974 69.1471 87.2957C69.2727 87.2957 69.4422 87.2957 69.6494 87.3146C69.8566 87.3334 70.0939 87.341 70.3614 87.3712V83.0399C70.1731 83.0299 70.0525 83.0248 69.9985 83.0186Z" fill="white" fill-opacity="0.5"/>
<path d="M32.3228 80.8579V99.5897H36.3085V77.8026C36.3085 77.8026 32.3228 77.6403 32.3228 80.8579Z" fill="white" fill-opacity="0.5"/>
<path d="M43.8315 82.0068H39.562V77.7725H43.8315V82.0068Z" fill="white" fill-opacity="0.5"/>
<path d="M39.5645 99.62H43.8402V83.4501H39.5645V99.62Z" fill="white" fill-opacity="0.5"/>
<path d="M55.2699 99.586H50.9716L45.332 83.4476H49.8175L53.0247 94.7942L55.8677 84.9023C56.1942 83.9308 56.8404 83.446 57.8065 83.4476H60.9584L55.2699 99.586Z" fill="white" fill-opacity="0.5"/>
</g>
<defs>
<clipPath id="clip0_93_49">
<rect width="119" height="100" fill="white"/>
</clipPath>
</defs>
</svg>
