<svg width="149" height="48" viewBox="0 0 149 48" fill="none" xmlns="http://www.w3.org/2000/svg">
<g clip-path="url(#clip0_93_46)">
<path fill-rule="evenodd" clip-rule="evenodd" d="M27.1903 33.8771C26.9297 36.0518 25.6219 37.7924 23.5963 38.6649C22.4697 39.1501 20.9544 39.4128 19.7571 39.3304C17.8883 39.2592 16.13 38.8006 14.513 37.9637C13.9342 37.6655 13.0727 37.0667 12.41 36.5058C12.2422 36.3634 12.2223 36.2743 12.3327 36.1141C12.3924 36.0228 12.5028 35.8581 12.748 35.4975C13.1014 34.9744 13.1456 34.9099 13.1854 34.8476C13.298 34.6717 13.4836 34.6562 13.6647 34.8008C13.678 34.8112 13.689 34.8201 13.6979 34.8275C13.7067 34.835 13.7398 34.8609 13.7973 34.9054C13.868 34.9611 13.9099 34.9945 13.9276 35.0078C15.6727 36.3856 17.7072 37.1802 19.7593 37.2604C22.6155 37.2203 24.6699 35.9271 25.0388 33.9394C25.443 31.7514 23.7399 29.8639 20.4065 28.8111C19.3639 28.4817 16.7286 27.42 16.2426 27.1329C13.9607 25.784 12.8938 24.0167 13.0462 21.8354C13.2782 18.8105 16.0659 16.5535 19.587 16.5379C21.162 16.5357 22.7326 16.8651 24.2435 17.5061C24.7781 17.7332 25.7324 18.2562 26.0615 18.5055C26.2515 18.6458 26.289 18.8105 26.1808 18.9863C26.119 19.0887 26.0196 19.2512 25.8075 19.5895V19.594C25.527 20.0391 25.5181 20.0547 25.4541 20.1571C25.3436 20.3263 25.2133 20.3419 25.0145 20.215C23.3997 19.1221 21.6082 18.5723 19.6378 18.5323C17.1859 18.5812 15.348 20.0525 15.2265 22.0557C15.1934 23.8653 16.5408 25.1853 19.4501 26.1936C25.3547 28.1055 27.6144 30.347 27.1903 33.8816M19.8985 2.64206C23.7421 2.64206 26.8766 6.31913 27.0224 10.9199H12.7723C12.9181 6.31913 16.0526 2.64206 19.8963 2.64206M39.7947 11.7858C39.7947 11.3072 39.4126 10.9199 38.9421 10.9199H29.7063C29.4788 4.84563 25.1735 0 19.8985 0C14.6234 0 10.3181 4.84563 10.0906 10.9199H0.841621C0.377735 10.9288 0.00441796 11.3117 0.00441796 11.7858C0.00441796 11.808 0.00441796 11.8303 0.00662693 11.8525H0L1.31876 41.1378C1.31876 41.2201 1.32097 41.3025 1.3276 41.3848C1.3276 41.4026 1.3298 41.4227 1.33201 41.4405V41.5028L1.33864 41.505C1.53966 43.5439 3.00642 45.1843 5.00334 45.26L5.00775 45.2645H34.3474C34.3607 45.2645 34.3761 45.2645 34.3894 45.2645C34.4026 45.2645 34.4181 45.2645 34.4313 45.2645H34.4954C36.5255 45.2066 38.1711 43.5439 38.3434 41.4805V41.4516C38.3434 41.4294 38.3457 41.4093 38.3479 41.3871C38.3501 41.3359 38.3523 41.2825 38.3545 41.2313L39.7925 11.8303C39.7925 11.8147 39.7925 11.8013 39.7925 11.7858M137.604 30.8722C138.169 29.0137 139.879 27.7761 141.874 27.7761C143.869 27.7761 145.589 29.0782 146.217 30.87L146.259 30.9924H137.569L137.606 30.8722H137.604ZM148.192 33.5655C148.199 33.5655 148.208 33.5655 148.22 33.5655C148.232 33.5655 148.244 33.5655 148.256 33.5655C148.671 33.5455 149 33.1893 149 32.7531C149 32.733 149 32.713 148.998 32.6841C148.998 32.6796 148.998 32.6685 148.998 32.6329C148.998 28.5307 145.806 25.2053 141.867 25.2053C137.929 25.2053 134.737 28.5307 134.737 32.6329C134.737 32.9378 134.754 33.2428 134.79 33.5477V33.5633L134.803 33.6434C134.999 35.1191 135.625 36.4747 136.612 37.572C136.612 37.572 136.612 37.572 136.616 37.5787C137.712 38.7917 139.199 39.6198 140.847 39.9291L140.869 39.9336L140.975 39.9492C141.03 39.9581 141.087 39.967 141.165 39.9803C143.334 40.243 145.26 39.9291 146.888 39.1011C147.29 38.8964 147.65 38.6716 147.964 38.4356C148.066 38.3599 148.154 38.2843 148.233 38.2153C148.273 38.1796 148.306 38.1485 148.324 38.1329C148.691 37.7501 148.715 37.6165 148.492 37.2671C148.247 36.8753 148.032 36.5414 147.847 36.2654C147.783 36.1697 147.725 36.0874 147.679 36.0184C147.661 35.9931 147.647 35.9724 147.637 35.956C147.637 35.956 147.63 35.9471 147.626 35.9405H147.624C147.423 35.6845 147.286 35.6622 147.063 35.8603C147.038 35.8826 146.959 35.9427 146.946 35.9583C145.377 37.3605 143.237 37.8124 141.098 37.3628C140.701 37.2559 140.328 37.1179 139.985 36.9532C138.647 36.2766 137.697 35.0702 137.423 33.6746L137.401 33.5633H148.187L148.192 33.5655ZM120.637 30.8722C121.202 29.0137 122.912 27.7761 124.907 27.7761C126.901 27.7761 128.622 29.0782 129.25 30.87L129.291 30.9924H120.601L120.639 30.8722H120.637ZM131.227 33.5655C131.234 33.5655 131.243 33.5655 131.255 33.5655C131.267 33.5655 131.279 33.5655 131.291 33.5655C131.706 33.5455 132.035 33.1893 132.035 32.7531C132.035 32.733 132.035 32.713 132.033 32.6841C132.033 32.6796 132.033 32.6685 132.033 32.6329C132.033 28.5307 128.841 25.2053 124.902 25.2053C120.964 25.2053 117.772 28.5307 117.772 32.6329C117.772 32.9378 117.789 33.2428 117.825 33.5477V33.5633L117.838 33.6434C118.035 35.1191 118.66 36.4747 119.647 37.572C119.647 37.572 119.647 37.572 119.652 37.5787C120.747 38.7917 122.232 39.6198 123.882 39.9291L123.904 39.9336L124.01 39.9492C124.065 39.9581 124.122 39.967 124.2 39.9803C126.369 40.243 128.295 39.9291 129.923 39.1011C130.325 38.8964 130.685 38.6716 130.999 38.4356C131.101 38.3599 131.189 38.2843 131.269 38.2153C131.308 38.1796 131.341 38.1485 131.359 38.1329C131.726 37.7501 131.75 37.6165 131.527 37.2671C131.282 36.8753 131.068 36.5414 130.882 36.2654C130.818 36.1697 130.76 36.0874 130.714 36.0184C130.696 35.9931 130.682 35.9724 130.672 35.956C130.672 35.956 130.665 35.9471 130.661 35.9405C130.46 35.6845 130.323 35.6622 130.1 35.8603C130.076 35.8826 129.996 35.9427 129.983 35.9583C128.415 37.3605 126.274 37.8124 124.136 37.3628C123.738 37.2559 123.365 37.1179 123.022 36.9532C121.684 36.2766 120.734 35.0702 120.46 33.6746L120.438 33.5633H131.224L131.227 33.5655ZM107.69 37.6566C105.039 37.6566 102.87 35.5376 102.804 32.8844V32.6351C102.87 29.9841 105.039 27.8652 107.69 27.8652C110.341 27.8652 112.578 30.0576 112.578 32.762C112.578 35.4664 110.389 37.6588 107.69 37.6588M107.692 25.2654C105.954 25.2654 104.29 25.8619 102.956 26.957L102.804 27.0817V25.7106C102.804 25.3455 102.726 25.2654 102.36 25.2654H100.652C100.281 25.2654 100.206 25.3388 100.206 25.7106V47.5526C100.206 47.911 100.29 47.9978 100.652 47.9978H102.36C102.724 47.9978 102.804 47.9132 102.804 47.5526V38.4445L102.956 38.5692C104.292 39.6643 105.954 40.2608 107.692 40.2608C111.825 40.2608 115.178 36.9042 115.178 32.7642C115.178 28.6242 111.827 25.2676 107.692 25.2676M90.1131 37.4896C87.4071 37.4896 85.2158 35.3172 85.2158 32.6351C85.2158 29.953 87.4093 27.7806 90.1131 27.7806C92.8168 27.7806 95.0104 29.953 95.0104 32.6351C95.0104 35.3172 92.8168 37.4896 90.1131 37.4896ZM90.1153 25.2053C85.9734 25.2053 82.6158 28.5329 82.6158 32.6373C82.6158 36.7418 85.9734 40.0694 90.1153 40.0694C94.2571 40.0694 97.6147 36.7418 97.6147 32.6373C97.6147 28.5329 94.2571 25.2053 90.1153 25.2053ZM73.3955 25.37C71.8824 25.37 70.42 25.8597 69.2073 26.7656L69.0593 26.8747V16.7316C69.0593 16.3955 68.9488 16.2864 68.6153 16.2864H66.8282C66.4682 16.2864 66.3842 16.3732 66.3842 16.7316V39.8713C66.3842 40.2207 66.4726 40.3187 66.8282 40.3187H68.6153C68.9466 40.3187 69.0593 40.2029 69.0593 39.8713V32.3124C69.077 29.9329 71.0142 28.0121 73.3955 28.0121C75.7768 28.0121 77.7229 29.9419 77.7317 32.3279V39.869C77.7317 40.2519 77.7958 40.3142 78.1757 40.3142H79.9584C80.3361 40.3142 80.4024 40.2497 80.4024 39.869V32.3057C80.3891 28.4906 77.2303 25.3678 73.3977 25.3678M48.5003 36.1208L48.4959 36.1274C48.2419 36.5169 48.1336 36.6794 48.074 36.7729C47.873 37.0734 47.8973 37.2092 48.2043 37.4696C48.92 38.0505 49.8412 38.6627 50.4619 38.9676C52.1893 39.8179 54.0537 40.2675 56.0307 40.3098C57.3075 40.3743 58.9112 40.0694 60.1063 39.5329C62.2689 38.5603 63.6451 36.6661 63.8859 34.3334C64.2768 30.554 61.8359 28.1901 55.547 26.2848C52.6179 25.3322 51.2417 24.0657 51.2417 22.3006C51.3278 20.3485 53.1259 18.8884 55.5492 18.7971C57.5019 18.8016 59.2293 19.3246 60.9258 20.4242C61.2837 20.6423 61.4494 20.6023 61.6901 20.2884C61.7188 20.2417 61.794 20.1304 62.1165 19.6652C62.4169 19.2289 62.5163 19.0843 62.5406 19.042C62.7438 18.6569 62.7151 18.51 62.3484 18.2473C61.9883 17.9869 60.9722 17.455 60.3935 17.2212C58.7787 16.5713 57.1109 16.2575 55.4498 16.2908C51.6702 16.3732 48.7212 18.8505 48.5268 22.1003C48.4031 24.4463 49.5849 26.3338 52.0568 27.7294C52.7482 28.0966 55.2819 29.0626 56.4637 29.4099C59.8235 30.4004 61.5753 32.2256 61.213 34.3779C60.8839 36.3322 58.8516 37.6343 55.9976 37.7233C53.9278 37.6811 51.8447 36.9154 50.0334 35.5465C50.0245 35.5398 49.9781 35.5064 49.8942 35.4419C49.8147 35.3825 49.769 35.3484 49.7572 35.3395C49.3883 35.0835 49.1719 35.1035 48.9465 35.4419C48.92 35.4842 48.6395 35.9137 48.5003 36.123" fill="white" fill-opacity="0.5"/>
</g>
<defs>
<clipPath id="clip0_93_46">
<rect width="149" height="48" fill="white"/>
</clipPath>
</defs>
</svg>
